<svg width="64" height="64" viewBox="0 0 64 64" fill="none" xmlns="http://www.w3.org/2000/svg">
<mask id="mask0_3046_6380" style="mask-type:luminance" maskUnits="userSpaceOnUse" x="0" y="0" width="64" height="64">
<path d="M32 64C49.6731 64 64 49.6731 64 32C64 14.3269 49.6731 0 32 0C14.3269 0 0 14.3269 0 32C0 49.6731 14.3269 64 32 64Z" fill="white"/>
</mask>
<g mask="url(#mask0_3046_6380)">
<path d="M47.047 55.3002H16.9629V26.9482C16.9629 18.6362 23.6977 11.9014 32.0098 11.9014C40.3218 11.9014 47.0566 18.6362 47.0566 26.9482V55.3002H47.047Z" fill="#111111"/>
<path d="M37.8348 47.4139C36.1995 48.6138 34.1965 49.3201 32.0193 49.3201C29.8324 49.3201 27.8004 48.6041 26.165 47.3945V51.2845H37.8348V47.4139Z" fill="#CC8666"/>
<path d="M39.9252 51.2842H37.8351H26.1653H24.0752V54.3226H39.9252V51.2842Z" fill="#565656"/>
<path d="M21.6364 54.3232H8.77637V65.935H55.2233V54.3232H42.3633H21.6364Z" fill="#707070"/>
<path d="M32 46.8237C34.1869 46.8237 36.1996 46.1076 37.8349 44.9078C40.2734 43.1176 41.8507 40.2244 41.8507 36.9731V34.7765V33.0154V31.5446V29.7835V22.7293C41.8507 19.6813 39.3735 17.2041 36.3254 17.2041H27.6747C24.6266 17.2041 22.1494 19.6813 22.1494 22.7293V29.7835V31.5446V32.9961V34.7572V36.9634C22.1494 40.2244 23.7267 43.108 26.1651 44.8981C27.8005 46.1077 29.8132 46.8237 32 46.8237ZM37.3705 29.1352C37.3705 29.4835 37.0899 29.7641 36.7415 29.7641C36.3931 29.7641 36.1125 29.4835 36.1125 29.1352V27.8192C36.1125 27.4708 36.3931 27.1902 36.7415 27.1902C37.0899 27.1902 37.3705 27.4708 37.3705 27.8192V29.1352ZM35.1062 20.7844H39.5573V21.9552C39.5573 22.6036 39.0348 23.1261 38.3865 23.1261H35.1062C34.4579 23.1261 33.9353 22.6036 33.9353 21.9552C33.9353 21.3069 34.4579 20.7844 35.1062 20.7844ZM33.6837 33.9056C34.0127 33.9056 34.2837 34.1766 34.2837 34.5056C34.2837 34.8346 34.0127 35.1055 33.6837 35.1055C33.3547 35.1055 33.0838 34.8346 33.0838 34.5056C33.0838 34.1766 33.3451 33.9056 33.6837 33.9056ZM30.9163 34.5056C30.9163 34.8346 30.6453 35.1055 30.3163 35.1055C29.9873 35.1055 29.7164 34.8346 29.7164 34.5056C29.7164 34.1766 29.9873 33.9056 30.3163 33.9056C30.655 33.9056 30.9163 34.1766 30.9163 34.5056ZM25.6329 23.1164C24.9846 23.1164 24.4621 22.5939 24.4621 21.9456V20.7747H28.9133C29.5616 20.7747 30.0841 21.2972 30.0841 21.9456C30.0841 22.5939 29.5616 23.1164 28.9133 23.1164H25.6329ZM27.9069 29.1352C27.9069 29.4835 27.6263 29.7641 27.2779 29.7641C26.9296 29.7641 26.649 29.4835 26.649 29.1352V27.8192C26.649 27.4708 26.9296 27.1902 27.2779 27.1902C27.6263 27.1902 27.9069 27.4708 27.9069 27.8192V29.1352ZM28.2746 39.4503C28.2746 39.4212 28.2746 39.3825 28.2746 39.3438C28.2746 39.2374 28.2843 39.1406 28.3036 39.0342C28.4488 38.0955 29.2616 37.3795 30.2389 37.3795C31.3227 37.3795 32.2032 38.26 32.2032 39.3438C32.2032 38.26 33.0838 37.3795 34.1676 37.3795C35.1449 37.3795 35.9577 38.0955 36.1029 39.0342C36.1222 39.1309 36.1319 39.2374 36.1319 39.3438C36.1319 39.3825 36.1319 39.4115 36.1319 39.4503C36.0835 40.3889 35.3191 41.1339 34.3804 41.2114C33.6547 41.2791 32.929 41.3081 32.2032 41.3081C31.4775 41.3081 30.7518 41.2791 30.026 41.2114C29.0874 41.1339 28.323 40.3985 28.2746 39.4503Z" fill="#CC8666"/>
<path d="M32.0193 49.3197C34.1965 49.3197 36.2092 48.6133 37.8348 47.4134V44.9072C36.1995 46.1071 34.1868 46.8232 31.9999 46.8232C29.8131 46.8232 27.8004 46.1071 26.165 44.9072V47.3941C27.8004 48.6036 29.8227 49.3197 32.0193 49.3197Z" fill="#B2745B"/>
<path d="M34.3705 41.2211C35.3091 41.1437 36.0735 40.3987 36.1219 39.46C36.1219 39.431 36.1219 39.3923 36.1219 39.3536C36.1219 39.2471 36.1122 39.1504 36.0929 39.0439C34.7963 39.2472 33.4996 39.3536 32.1933 39.3536C30.887 39.3536 29.5806 39.2472 28.2937 39.0439C28.2743 39.1407 28.2646 39.2471 28.2646 39.3536C28.2646 39.3923 28.2646 39.4213 28.2646 39.46C28.313 40.3987 29.0775 41.1437 30.0161 41.2211C30.7418 41.2889 31.4675 41.3179 32.1933 41.3179C32.919 41.3179 33.6447 41.2792 34.3705 41.2211Z" fill="#262626"/>
<path d="M21.6269 32.106C21.1334 32.106 20.727 31.6995 20.727 31.206C20.727 30.7125 21.1334 30.3061 21.6269 30.3061C21.8205 30.3061 22.0043 30.3739 22.1495 30.4803V28.7192C21.9753 28.6805 21.8011 28.6611 21.6269 28.6611C20.2239 28.6611 19.082 29.803 19.082 31.206C19.082 32.5124 20.069 33.5961 21.3463 33.7413V33.2961H21.9172V33.7413C21.9946 33.7316 22.0817 33.7219 22.1591 33.7026V31.9414C22.0043 32.0479 21.8205 32.106 21.6269 32.106Z" fill="#CC8666"/>
<path d="M20.7266 31.2056C20.7266 31.6991 21.133 32.1055 21.6265 32.1055C21.82 32.1055 22.0038 32.0378 22.149 31.9313V30.4798C22.0038 30.3734 21.82 30.3057 21.6265 30.3057C21.1233 30.3153 20.7266 30.7121 20.7266 31.2056Z" fill="#333333"/>
<path d="M42.3634 30.3159C42.8569 30.3159 43.2633 30.7223 43.2633 31.2158C43.2633 31.7093 42.8569 32.1157 42.3634 32.1157C42.1699 32.1157 41.9957 32.0577 41.8506 31.9512V33.7123C41.928 33.7317 42.0054 33.7414 42.0731 33.751V33.3059H42.644V33.751C43.9117 33.6059 44.9083 32.5318 44.9083 31.2158C44.9083 29.8127 43.7665 28.6709 42.3634 28.6709C42.1893 28.6709 42.0151 28.6903 41.8506 28.7193V30.4804C41.9957 30.374 42.1699 30.3159 42.3634 30.3159Z" fill="#CC8666"/>
<path d="M43.2633 31.2056C43.2633 30.7121 42.8569 30.3057 42.3634 30.3057C42.1699 30.3057 41.9957 30.3637 41.8506 30.4702V31.941C41.9957 32.0474 42.1699 32.1055 42.3634 32.1055C42.8569 32.1055 43.2633 31.7088 43.2633 31.2056Z" fill="#333333"/>
<path d="M34.1577 37.3896C33.0739 37.3896 32.1934 38.2702 32.1934 39.354C33.4997 39.354 34.806 39.2475 36.093 39.0443C35.9478 38.1057 35.135 37.3896 34.1577 37.3896Z" fill="#0F0F0F"/>
<path d="M30.2292 37.3896C29.2519 37.3896 28.4391 38.1057 28.2939 39.0443C29.5906 39.2475 30.8872 39.354 32.1936 39.354C32.1936 38.2702 31.313 37.3896 30.2292 37.3896Z" fill="#0F0F0F"/>
<path d="M42.0732 33.2959V33.741C42.17 33.7507 42.2668 33.7604 42.3635 33.7604C42.4603 33.7604 42.5571 33.7507 42.6538 33.741V33.2959H42.0732Z" fill="#3A3A3A"/>
<path d="M21.3359 33.2959V33.741C21.4327 33.7507 21.5295 33.7604 21.6262 33.7604C21.723 33.7604 21.8198 33.7507 21.9165 33.741V33.2959H21.3359Z" fill="#3A3A3A"/>
<path d="M29.7256 34.5052C29.7256 34.8342 29.9965 35.1052 30.3255 35.1052C30.6545 35.1052 30.9255 34.8342 30.9255 34.5052C30.9255 34.1762 30.6545 33.9053 30.3255 33.9053C29.9868 33.9053 29.7256 34.1762 29.7256 34.5052Z" fill="#111111"/>
<path d="M33.6839 35.1052C34.0129 35.1052 34.2839 34.8342 34.2839 34.5052C34.2839 34.1762 34.0129 33.9053 33.6839 33.9053C33.3549 33.9053 33.084 34.1762 33.084 34.5052C33.084 34.8342 33.3453 35.1052 33.6839 35.1052Z" fill="#111111"/>
<path d="M37.1965 39.4788C37.361 39.4788 37.4964 39.3434 37.4964 39.1789C37.4964 39.0144 37.361 38.8789 37.1965 38.8789C37.032 38.8789 36.8965 39.0144 36.8965 39.1789C36.8965 39.3434 37.032 39.4788 37.1965 39.4788Z" fill="#111111"/>
<path d="M30.0937 21.9453C30.0937 21.2969 29.5712 20.7744 28.9228 20.7744H24.4717V21.9453C24.4717 22.5936 24.9942 23.1161 25.6425 23.1161H28.9228C29.5712 23.1161 30.0937 22.5936 30.0937 21.9453Z" fill="#111111"/>
<path d="M35.1064 23.1161H38.3867C39.035 23.1161 39.5576 22.5936 39.5576 21.9453V20.7744H35.1064C34.4581 20.7744 33.9355 21.2969 33.9355 21.9453C33.9355 22.5936 34.4581 23.1161 35.1064 23.1161Z" fill="#111111"/>
<path d="M36.751 27.1904C36.4027 27.1904 36.1221 27.471 36.1221 27.8194V29.1354C36.1221 29.4837 36.4027 29.7644 36.751 29.7644C37.0994 29.7644 37.38 29.4837 37.38 29.1354V27.8194C37.3703 27.471 37.0897 27.1904 36.751 27.1904Z" fill="#35251E"/>
<path d="M27.2774 27.1904C26.9291 27.1904 26.6484 27.471 26.6484 27.8194V29.1354C26.6484 29.4837 26.9291 29.7644 27.2774 29.7644C27.6258 29.7644 27.9064 29.4837 27.9064 29.1354V27.8194C27.9064 27.471 27.6258 27.1904 27.2774 27.1904Z" fill="#35251E"/>
<path d="M42.0732 33.7412V35.6862H42.6442V33.7412C42.5474 33.7509 42.4506 33.7606 42.3539 33.7606C42.2668 33.7606 42.17 33.7509 42.0732 33.7412Z" fill="#3A3A3A"/>
<path d="M21.3359 33.7412V35.6862H21.9068V33.7412C21.8101 33.7509 21.7133 33.7606 21.6165 33.7606C21.5198 33.7606 21.4327 33.7509 21.3359 33.7412Z" fill="#3A3A3A"/>
<path opacity="0.4" d="M36.9344 32.4929C39.1095 32.4929 40.8727 30.7296 40.8727 28.5545C40.8727 26.3795 39.1095 24.6162 36.9344 24.6162C34.7593 24.6162 32.9961 26.3795 32.9961 28.5545C32.9961 30.7296 34.7593 32.4929 36.9344 32.4929Z" fill="#161616"/>
<mask id="mask1_3046_6380" style="mask-type:luminance" maskUnits="userSpaceOnUse" x="32" y="24" width="9" height="9">
<path d="M36.9344 32.4919C39.1095 32.4919 40.8727 30.7286 40.8727 28.5536C40.8727 26.3785 39.1095 24.6152 36.9344 24.6152C34.7593 24.6152 32.9961 26.3785 32.9961 28.5536C32.9961 30.7286 34.7593 32.4919 36.9344 32.4919Z" fill="white"/>
</mask>
<g mask="url(#mask1_3046_6380)">
<path opacity="0.3" d="M35.7833 23.9476L37.3799 23.8799L35.8123 33.4402L33.9932 33.266L35.7833 23.9476Z" fill="white"/>
</g>
<mask id="mask2_3046_6380" style="mask-type:luminance" maskUnits="userSpaceOnUse" x="32" y="24" width="9" height="9">
<path d="M36.9344 32.4919C39.1095 32.4919 40.8727 30.7286 40.8727 28.5536C40.8727 26.3785 39.1095 24.6152 36.9344 24.6152C34.7593 24.6152 32.9961 26.3785 32.9961 28.5536C32.9961 30.7286 34.7593 32.4919 36.9344 32.4919Z" fill="white"/>
</mask>
<g mask="url(#mask2_3046_6380)">
<path opacity="0.3" d="M37.9796 23.9476L38.3183 23.8799L36.7507 33.4402L36.1895 33.266L37.9796 23.9476Z" fill="white"/>
</g>
<path opacity="0.4" d="M36.9344 32.4929C39.1095 32.4929 40.8727 30.7296 40.8727 28.5545C40.8727 26.3795 39.1095 24.6162 36.9344 24.6162C34.7593 24.6162 32.9961 26.3795 32.9961 28.5545C32.9961 30.7296 34.7593 32.4929 36.9344 32.4929Z" stroke="black" stroke-width="4" stroke-miterlimit="10" stroke-linecap="round" stroke-linejoin="round"/>
<path opacity="0.4" d="M27.4705 32.4929C29.6456 32.4929 31.4089 30.7296 31.4089 28.5545C31.4089 26.3795 29.6456 24.6162 27.4705 24.6162C25.2955 24.6162 23.5322 26.3795 23.5322 28.5545C23.5322 30.7296 25.2955 32.4929 27.4705 32.4929Z" fill="#161616"/>
<mask id="mask3_3046_6380" style="mask-type:luminance" maskUnits="userSpaceOnUse" x="23" y="24" width="9" height="9">
<path d="M27.4705 32.4919C29.6456 32.4919 31.4089 30.7286 31.4089 28.5536C31.4089 26.3785 29.6456 24.6152 27.4705 24.6152C25.2955 24.6152 23.5322 26.3785 23.5322 28.5536C23.5322 30.7286 25.2955 32.4919 27.4705 32.4919Z" fill="white"/>
</mask>
<g mask="url(#mask3_3046_6380)">
<path opacity="0.3" d="M26.3194 23.9476L27.916 23.8799L26.3387 33.4402L24.5195 33.266L26.3194 23.9476Z" fill="white"/>
</g>
<mask id="mask4_3046_6380" style="mask-type:luminance" maskUnits="userSpaceOnUse" x="23" y="24" width="9" height="9">
<path d="M27.4705 32.4919C29.6456 32.4919 31.4089 30.7286 31.4089 28.5536C31.4089 26.3785 29.6456 24.6152 27.4705 24.6152C25.2955 24.6152 23.5322 26.3785 23.5322 28.5536C23.5322 30.7286 25.2955 32.4919 27.4705 32.4919Z" fill="white"/>
</mask>
<g mask="url(#mask4_3046_6380)">
<path opacity="0.3" d="M28.5156 23.9476L28.8543 23.8799L27.277 33.4402L26.7158 33.266L28.5156 23.9476Z" fill="white"/>
</g>
<path opacity="0.4" d="M27.4705 32.4929C29.6456 32.4929 31.4089 30.7296 31.4089 28.5545C31.4089 26.3795 29.6456 24.6162 27.4705 24.6162C25.2955 24.6162 23.5322 26.3795 23.5322 28.5545C23.5322 30.7296 25.2955 32.4929 27.4705 32.4929Z" stroke="black" stroke-width="4" stroke-miterlimit="10" stroke-linecap="round" stroke-linejoin="round"/>
<path d="M23.5327 28.5547H21.1523" stroke="black" stroke-width="4" stroke-miterlimit="10" stroke-linecap="round" stroke-linejoin="round"/>
<path d="M40.873 28.5547H42.847" stroke="black" stroke-width="4" stroke-miterlimit="10" stroke-linecap="round" stroke-linejoin="round"/>
<path d="M31.4092 28.5547H33.0058" stroke="black" stroke-width="4" stroke-miterlimit="10" stroke-linecap="round" stroke-linejoin="round"/>
<path d="M36.9344 32.4929C39.1095 32.4929 40.8727 30.7296 40.8727 28.5545C40.8727 26.3795 39.1095 24.6162 36.9344 24.6162C34.7593 24.6162 32.9961 26.3795 32.9961 28.5545C32.9961 30.7296 34.7593 32.4929 36.9344 32.4929Z" stroke="black" stroke-width="4" stroke-miterlimit="10"/>
<path d="M27.4705 32.4929C29.6456 32.4929 31.4089 30.7296 31.4089 28.5545C31.4089 26.3795 29.6456 24.6162 27.4705 24.6162C25.2955 24.6162 23.5322 26.3795 23.5322 28.5545C23.5322 30.7296 25.2955 32.4929 27.4705 32.4929Z" stroke="black" stroke-width="4" stroke-miterlimit="10"/>
<path d="M22.1494 23.6586H22.4494C26.9199 23.6586 31.0227 21.0556 33.0838 16.9141H22.1494V23.6586Z" fill="#111111"/>
<path opacity="0.2" d="M23.2139 23.6586H23.5138C27.9844 23.6586 32.0872 21.0556 34.1483 16.9141H23.2139V23.6586Z" fill="#111111"/>
</g>
</svg>

