<svg width="64" height="64" viewBox="0 0 64 64" fill="none" xmlns="http://www.w3.org/2000/svg">
<mask id="mask0_3046_3911" style="mask-type:luminance" maskUnits="userSpaceOnUse" x="0" y="0" width="64" height="64">
<path d="M32 64C49.6731 64 64 49.6731 64 32C64 14.3269 49.6731 0 32 0C14.3269 0 0 14.3269 0 32C0 49.6731 14.3269 64 32 64Z" fill="white"/>
</mask>
<g mask="url(#mask0_3046_3911)">
<path d="M26.9002 9.02823L25.6229 9.64752C20.3202 12.2118 17.7173 18.2983 19.5461 23.9009L21.1137 28.7198H22.1491L32.019 28.6617L41.889 28.7198H42.9244L44.492 23.8912C46.3112 18.2886 43.7179 12.2021 38.4152 9.63784L37.1572 9.02823C33.935 7.46064 30.1515 7.46064 26.9002 9.02823Z" fill="#35251E"/>
<path d="M20.7266 31.2163C20.7266 31.7098 21.133 32.1162 21.6265 32.1162C21.82 32.1162 22.0039 32.0485 22.149 31.942V30.4906C22.0039 30.3841 21.82 30.3164 21.6265 30.3164C21.133 30.3164 20.7266 30.7131 20.7266 31.2163Z" fill="#333333"/>
<path d="M43.2731 31.2163C43.2731 30.7228 42.8667 30.3164 42.3732 30.3164C42.1797 30.3164 42.0055 30.3745 41.8604 30.4809V31.9517C42.0055 32.0582 42.1797 32.1162 42.3732 32.1162C42.8667 32.1162 43.2731 31.7098 43.2731 31.2163Z" fill="#333333"/>
<path d="M42.3732 30.3159C42.8667 30.3159 43.2731 30.7223 43.2731 31.2158C43.2731 31.7093 42.8667 32.1157 42.3732 32.1157C42.1797 32.1157 42.0055 32.0577 41.8604 31.9512V33.7123C42.0249 33.751 42.199 33.7607 42.3732 33.7607C43.7763 33.7607 44.9181 32.6189 44.9181 31.2158C44.9181 29.8127 43.7763 28.6709 42.3732 28.6709C42.199 28.6709 42.0249 28.6903 41.8604 28.7193V30.4804C42.0055 30.374 42.1797 30.3159 42.3732 30.3159Z" fill="#CC8666"/>
<path d="M32 46.8247C34.1869 46.8247 36.1996 46.1086 37.8349 44.9087C40.2734 43.1186 41.8507 40.2253 41.8507 36.9741V33.7131V31.952V30.4812V28.72V22.7303C41.8507 19.6822 39.3735 17.2051 36.3254 17.2051H27.6747C24.6266 17.2051 22.1494 19.6822 22.1494 22.7303V28.72V30.4908V31.9423V33.7034V36.9741C22.1494 40.235 23.7267 43.1186 26.1651 44.9087C27.8005 46.1183 29.8228 46.8247 32 46.8247ZM37.3801 29.1361C37.3801 29.4845 37.0995 29.7651 36.7512 29.7651C36.4028 29.7651 36.1222 29.4845 36.1222 29.1361V27.8201C36.1222 27.4718 36.4028 27.1912 36.7512 27.1912C37.0995 27.1912 37.3801 27.4718 37.3801 27.8201V29.1361ZM35.1062 20.7854H38.3865C39.0348 20.7854 39.5573 21.3079 39.5573 21.9562C39.5573 22.6045 39.0348 23.1271 38.3865 23.1271H35.1062C34.4579 23.1271 33.9353 22.6045 33.9353 21.9562C33.9353 21.3079 34.4675 20.7854 35.1062 20.7854ZM33.6837 33.9163C34.0127 33.9163 34.2837 34.1872 34.2837 34.5162C34.2837 34.8452 34.0127 35.1162 33.6837 35.1162C33.3547 35.1162 33.0838 34.8452 33.0838 34.5162C33.0838 34.1872 33.3547 33.9163 33.6837 33.9163ZM30.9259 34.5162C30.9259 34.8452 30.655 35.1162 30.326 35.1162C29.997 35.1162 29.7261 34.8452 29.7261 34.5162C29.7261 34.1872 29.997 33.9163 30.326 33.9163C30.655 33.9163 30.9259 34.1776 30.9259 34.5162ZM25.6426 23.1271C24.9943 23.1271 24.4718 22.6045 24.4718 21.9562C24.4718 21.3079 24.9943 20.7854 25.6426 20.7854H28.9229C29.5712 20.7854 30.0938 21.3079 30.0938 21.9562C30.0938 22.6045 29.5712 23.1271 28.9229 23.1271H25.6426ZM26.6586 27.8201C26.6586 27.4718 26.9393 27.1912 27.2876 27.1912C27.636 27.1912 27.9166 27.4718 27.9166 27.8201V29.1361C27.9166 29.4845 27.636 29.7651 27.2876 29.7651C26.9393 29.7651 26.6586 29.4845 26.6586 29.1361V27.8201ZM26.7457 36.5773V36.4418H27.665H36.4028H37.2543V36.5773C37.2543 37.4095 37.0608 38.203 36.7125 38.9093C35.8513 40.6414 34.0611 41.8413 32 41.8413C31.1872 41.8413 30.4131 41.6574 29.7261 41.3284C27.9649 40.4672 26.7457 38.6674 26.7457 36.5773Z" fill="#CC8666"/>
<path d="M31.8358 38.9089H36.7127C37.0611 38.2025 37.2546 37.4187 37.2546 36.5769V36.4414H36.4031V37.3994C36.4031 37.8445 36.0451 38.2025 35.5999 38.2025H28.4587C28.0136 38.2025 27.6556 37.8445 27.6556 37.3994V36.4414H26.7363V36.5769C26.7363 38.667 27.9556 40.4668 29.7167 41.3183V41.0184C29.7263 39.8475 30.6746 38.9089 31.8358 38.9089Z" fill="#840636"/>
<path d="M32.0193 49.3207C34.1965 49.3207 36.2092 48.6143 37.8348 47.4144V44.9082C36.1995 46.1081 34.1868 46.8241 31.9999 46.8241C29.8131 46.8241 27.8004 46.1081 26.165 44.9082V47.3951C27.8004 48.6046 29.8324 49.3207 32.0193 49.3207Z" fill="#B2745B"/>
<path d="M31.9996 41.8314C34.0703 41.8314 35.8508 40.6412 36.712 38.8994H31.8351C30.6739 38.8994 29.7256 39.8477 29.7256 41.0089V41.3088C30.4126 41.6475 31.1867 41.8314 31.9996 41.8314Z" fill="#F22661"/>
<path d="M21.6364 54.3232H8.77637V65.935H55.2233V54.3232H42.3633H21.6364Z" fill="#AF89E5"/>
<path d="M21.6269 32.1157C21.1334 32.1157 20.727 31.7093 20.727 31.2158C20.727 30.7223 21.1334 30.3159 21.6269 30.3159C21.8205 30.3159 22.0043 30.3836 22.1495 30.4901V28.729C21.9753 28.6902 21.8011 28.6709 21.6269 28.6709C20.2239 28.6709 19.082 29.8127 19.082 31.2158C19.082 32.6189 20.2239 33.7607 21.6269 33.7607C21.8108 33.7607 21.985 33.7414 22.1495 33.7026V31.9415C22.0043 32.048 21.8205 32.1157 21.6269 32.1157Z" fill="#CC8666"/>
<path d="M39.9243 51.2852H37.8439H26.1644H24.084V54.3236H39.9243V51.2852Z" fill="#DEC2FF"/>
<path d="M37.8446 47.4246C36.2093 48.6245 34.2063 49.3309 32.0291 49.3309C29.8422 49.3309 27.8101 48.6148 26.1748 47.4053V51.2952H37.8446V47.4246Z" fill="#CC8666"/>
<path d="M28.4675 38.1927H35.6087C36.0538 38.1927 36.4119 37.8347 36.4119 37.3896V36.4316H27.674V37.3896C27.6643 37.8347 28.0224 38.1927 28.4675 38.1927Z" fill="white"/>
<path d="M29.7256 34.516C29.7256 34.8449 29.9965 35.1159 30.3255 35.1159C30.6545 35.1159 30.9255 34.8449 30.9255 34.516C30.9255 34.187 30.6545 33.916 30.3255 33.916C29.9965 33.916 29.7256 34.1773 29.7256 34.516Z" fill="#35251E"/>
<path d="M33.6839 35.1061C34.0129 35.1061 34.2839 34.8352 34.2839 34.5062C34.2839 34.1772 34.0129 33.9062 33.6839 33.9062C33.3549 33.9062 33.084 34.1772 33.084 34.5062C33.084 34.8352 33.3549 35.1061 33.6839 35.1061Z" fill="#35251E"/>
<path d="M30.0937 21.956C30.0937 21.3077 29.5712 20.7852 28.9228 20.7852H25.6425C24.9942 20.7852 24.4717 21.3077 24.4717 21.956C24.4717 22.6043 24.9942 23.1269 25.6425 23.1269H28.9228C29.5712 23.1269 30.0937 22.5946 30.0937 21.956Z" fill="#35251E"/>
<path d="M35.1064 23.1269H38.3867C39.035 23.1269 39.5576 22.6043 39.5576 21.956C39.5576 21.3077 39.035 20.7852 38.3867 20.7852H35.1064C34.4581 20.7852 33.9355 21.3077 33.9355 21.956C33.9355 22.6043 34.4678 23.1269 35.1064 23.1269Z" fill="#35251E"/>
<path d="M36.751 27.2002C36.4027 27.2002 36.1221 27.4808 36.1221 27.8292V29.1355C36.1221 29.4838 36.4027 29.7645 36.751 29.7645C37.0994 29.7645 37.38 29.4838 37.38 29.1355V27.8195C37.38 27.4808 37.0994 27.2002 36.751 27.2002Z" fill="#35251E"/>
<path d="M27.2872 29.7644C27.6355 29.7644 27.9161 29.4837 27.9161 29.1354V27.8194C27.9161 27.471 27.6355 27.1904 27.2872 27.1904C26.9388 27.1904 26.6582 27.471 26.6582 27.8194V29.1354C26.6582 29.4837 26.9388 29.7644 27.2872 29.7644Z" fill="#35251E"/>
</g>
</svg>

