<svg width="64" height="64" viewBox="0 0 64 64" fill="none" xmlns="http://www.w3.org/2000/svg">
<mask id="mask0_3046_3886" style="mask-type:luminance" maskUnits="userSpaceOnUse" x="0" y="0" width="64" height="64">
<path d="M32 64C49.6731 64 64 49.6731 64 32C64 14.3269 49.6731 0 32 0C14.3269 0 0 14.3269 0 32C0 49.6731 14.3269 64 32 64Z" fill="white"/>
</mask>
<g mask="url(#mask0_3046_3886)">
<path d="M53.9655 48.7299C49.3498 40.8532 46.2437 44.3174 46.2437 44.3174C46.2437 44.3174 55.7363 33.8862 47.0468 32.2219C47.0468 32.2219 50.24 28.6125 47.579 27.6352C46.1953 27.3546 55.1654 16.875 43.573 14.0592C43.573 14.0592 42.4892 4.3924 32 8.3791C21.5107 4.3924 20.4269 14.0592 20.4269 14.0592C8.07009 17.4653 17.195 27.703 16.4209 27.6352C13.7599 28.6125 16.9531 32.2219 16.9531 32.2219C8.25395 33.8862 17.7562 44.3174 17.7562 44.3174C17.7562 44.3174 14.6501 40.8532 10.0344 48.7299C5.41875 56.6065 14.0695 60.1094 14.0695 60.1094H31.9903H32.0096H49.9304C49.9304 60.119 58.5811 56.6065 53.9655 48.7299Z" fill="#35251E"/>
<path d="M37.6512 47.4237C36.0159 48.6235 34.0129 49.3299 31.8357 49.3299C29.6488 49.3299 27.6168 48.6139 25.9814 47.4043V51.2942H37.6512V47.4237Z" fill="#E59576"/>
<path d="M39.731 51.2842H37.6505H25.9807H23.8906V54.3226H39.731V51.2842Z" fill="#CC7A6A"/>
<path d="M21.6461 54.3232H8.78613V65.935H55.2331V54.3232H42.3731H21.6461Z" fill="#BA503A"/>
<path d="M31.8164 46.8237C34.0033 46.8237 36.016 46.1076 37.6513 44.9078C40.0898 43.1176 41.667 40.2244 41.667 36.9731V34.7765V33.0154V31.5446V29.7835V22.7293C41.667 19.6813 39.1899 17.2041 36.1418 17.2041H27.4911C24.443 17.2041 21.9658 19.6813 21.9658 22.7293V29.7835V31.5543V33.0057V34.7668V36.9731C21.9658 40.234 23.5431 43.1176 25.9815 44.9078C27.6169 46.1173 29.6296 46.8237 31.8164 46.8237ZM37.1869 29.1352C37.1869 29.4835 36.9063 29.7641 36.5579 29.7641C36.2096 29.7641 35.9289 29.4835 35.9289 29.1352V27.8192C35.9289 27.4708 36.2096 27.1902 36.5579 27.1902C36.9063 27.1902 37.1869 27.4708 37.1869 27.8192V29.1352ZM34.9226 20.7844H39.3737V21.9552C39.3737 22.6036 38.8512 23.1261 38.2029 23.1261H34.9226C34.2742 23.1261 33.7517 22.6036 33.7517 21.9552C33.7517 21.3069 34.2742 20.7844 34.9226 20.7844ZM33.4905 33.9153C33.8195 33.9153 34.0904 34.1863 34.0904 34.5153C34.0904 34.8443 33.8195 35.1152 33.4905 35.1152C33.1615 35.1152 32.8905 34.8443 32.8905 34.5153C32.8905 34.1863 33.1615 33.9153 33.4905 33.9153ZM30.7327 34.5153C30.7327 34.8443 30.4617 35.1152 30.1327 35.1152C29.8037 35.1152 29.5328 34.8443 29.5328 34.5153C29.5328 34.1863 29.8037 33.9153 30.1327 33.9153C30.4617 33.9153 30.7327 34.1766 30.7327 34.5153ZM25.4493 23.1261C24.801 23.1261 24.2785 22.6036 24.2785 21.9552V20.7844H28.7296C29.378 20.7844 29.9005 21.3069 29.9005 21.9552C29.9005 22.6036 29.378 23.1261 28.7296 23.1261H25.4493ZM27.7233 29.1352C27.7233 29.4835 27.4427 29.7641 27.0943 29.7641C26.746 29.7641 26.4654 29.4835 26.4654 29.1352V27.8192C26.4654 27.4708 26.746 27.1902 27.0943 27.1902C27.4427 27.1902 27.7233 27.4708 27.7233 27.8192V29.1352ZM28.0813 39.4599C28.0813 39.4309 28.0813 39.3922 28.0813 39.3535C28.0813 39.247 28.091 39.1503 28.1104 39.0438C28.2555 38.1052 29.0683 37.3892 30.0457 37.3892C31.1294 37.3892 32.01 38.2697 32.01 39.3535C32.01 38.2697 32.8905 37.3892 33.9743 37.3892C34.9516 37.3892 35.7644 38.1052 35.9096 39.0438C35.9289 39.1406 35.9386 39.247 35.9386 39.3535C35.9386 39.3922 35.9386 39.4212 35.9386 39.4599C35.8902 40.3985 35.1258 41.1436 34.1872 41.221C33.4614 41.2888 32.7357 41.3178 32.01 41.3178C31.2842 41.3178 30.5585 41.2888 29.8328 41.221C28.8942 41.1436 28.1297 40.3985 28.0813 39.4599Z" fill="#E59576"/>
<path d="M31.8259 49.3197C34.0031 49.3197 36.0158 48.6133 37.6415 47.4134V44.9072C36.0062 46.1071 33.9935 46.8232 31.8066 46.8232C29.6197 46.8232 27.607 46.1071 25.9717 44.9072V47.3941C27.6167 48.6036 29.6391 49.3197 31.8259 49.3197Z" fill="#CC846A"/>
<path d="M34.1869 41.2211C35.1255 41.1437 35.8899 40.3986 35.9383 39.46C35.9383 39.431 35.9383 39.3923 35.9383 39.3536C35.9383 39.2471 35.9286 39.1504 35.9093 39.0439C34.6126 39.2472 33.316 39.3536 32.0097 39.3536C30.7034 39.3536 29.3971 39.2472 28.1101 39.0439C28.0907 39.1407 28.0811 39.2471 28.0811 39.3536C28.0811 39.3923 28.0811 39.4213 28.0811 39.46C28.1294 40.3986 28.8939 41.1437 29.8325 41.2211C30.5582 41.2889 31.284 41.3179 32.0097 41.3179C32.7354 41.3179 33.4612 41.2889 34.1869 41.2211Z" fill="#995C7A"/>
<path d="M20.5332 32.2798C20.5332 32.7733 20.9396 33.1797 21.4331 33.1797C21.6266 33.1797 21.8105 33.112 21.9556 33.0055V31.5541C21.8105 31.4476 21.6266 31.3799 21.4331 31.3799C20.9396 31.3799 20.5332 31.7766 20.5332 32.2798Z" fill="#333333"/>
<path d="M43.0798 32.2798C43.0798 31.7863 42.6733 31.3799 42.1798 31.3799C41.9863 31.3799 41.8121 31.4379 41.667 31.5444V33.0152C41.8121 33.1216 41.9863 33.1797 42.1798 33.1797C42.6733 33.1797 43.0798 32.7733 43.0798 32.2798Z" fill="#333333"/>
<path d="M33.9741 37.3887C32.8903 37.3887 32.0098 38.2692 32.0098 39.353C33.3161 39.353 34.6224 39.2466 35.9094 39.0433C35.7642 38.1144 34.9514 37.3887 33.9741 37.3887Z" fill="#824E63"/>
<path d="M30.0456 37.3887C29.0683 37.3887 28.2555 38.1047 28.1104 39.0433C29.407 39.2466 30.7036 39.353 32.01 39.353C32.01 38.2692 31.1294 37.3887 30.0456 37.3887Z" fill="#824E63"/>
<path d="M42.1798 29.7256C42.0057 29.7256 41.8315 29.7449 41.667 29.774V31.5351C41.8121 31.4286 41.9863 31.3706 42.1798 31.3706C42.6733 31.3706 43.0798 31.777 43.0798 32.2705C43.0798 32.764 42.6733 33.1704 42.1798 33.1704C41.9863 33.1704 41.8121 33.1123 41.667 33.0059V34.767C41.7444 34.7864 41.8218 34.796 41.8896 34.8057C41.9863 34.8154 42.0831 34.8251 42.1798 34.8251C42.2766 34.8251 42.3734 34.8154 42.4701 34.8057C43.7378 34.6606 44.7344 33.5865 44.7344 32.2705C44.7248 30.8674 43.5829 29.7256 42.1798 29.7256Z" fill="#E59576"/>
<path d="M21.4336 31.3803C21.6271 31.3803 21.811 31.4481 21.9561 31.5545V29.7934C21.7819 29.7547 21.6078 29.7354 21.4336 29.7354C20.0305 29.7354 18.8887 30.8772 18.8887 32.2803C18.8887 33.5866 19.8757 34.6703 21.153 34.8155C21.2497 34.8252 21.3465 34.8348 21.4432 34.8348C21.54 34.8348 21.6368 34.8252 21.7335 34.8155C21.8109 34.8058 21.898 34.7961 21.9754 34.7768V33.006C21.8303 33.1124 21.6465 33.1802 21.4529 33.1802C20.9594 33.1802 20.553 32.7738 20.553 32.2803C20.5337 31.7771 20.9401 31.3803 21.4336 31.3803Z" fill="#E59576"/>
<path d="M29.5322 34.515C29.5322 34.844 29.8032 35.1149 30.1322 35.1149C30.4612 35.1149 30.7321 34.844 30.7321 34.515C30.7321 34.186 30.4612 33.915 30.1322 33.915C29.8032 33.915 29.5322 34.1763 29.5322 34.515Z" fill="#35251E"/>
<path d="M33.4906 35.1052C33.8196 35.1052 34.0905 34.8342 34.0905 34.5052C34.0905 34.1762 33.8196 33.9053 33.4906 33.9053C33.1616 33.9053 32.8906 34.1762 32.8906 34.5052C32.8906 34.8342 33.1616 35.1052 33.4906 35.1052Z" fill="#35251E"/>
<path d="M29.9003 21.955C29.9003 21.3067 29.3778 20.7842 28.7295 20.7842H24.2783V21.955C24.2783 22.6033 24.8009 23.1259 25.4492 23.1259H28.7295C29.3778 23.1259 29.9003 22.5937 29.9003 21.955Z" fill="#35251E"/>
<path d="M34.9228 23.1259H38.2031C38.8514 23.1259 39.374 22.6033 39.374 21.955V20.7842H34.9228C34.2745 20.7842 33.752 21.3067 33.752 21.955C33.752 22.6033 34.2745 23.1259 34.9228 23.1259Z" fill="#35251E"/>
<path d="M36.5577 27.2002C36.2093 27.2002 35.9287 27.4808 35.9287 27.8292V29.1355C35.9287 29.4838 36.2093 29.7645 36.5577 29.7645C36.906 29.7645 37.1866 29.4838 37.1866 29.1355V27.8195C37.1866 27.4808 36.906 27.2002 36.5577 27.2002Z" fill="#35251E"/>
<path d="M27.0938 27.2002C26.7455 27.2002 26.4648 27.4808 26.4648 27.8292V29.1355C26.4648 29.4838 26.7455 29.7645 27.0938 29.7645C27.4422 29.7645 27.7228 29.4838 27.7228 29.1355V27.8195C27.7228 27.4808 27.4422 27.2002 27.0938 27.2002Z" fill="#35251E"/>
</g>
</svg>

