<svg width="64" height="64" viewBox="0 0 64 64" fill="none" xmlns="http://www.w3.org/2000/svg">
<mask id="mask0_1897_5993" style="mask-type:luminance" maskUnits="userSpaceOnUse" x="0" y="0" width="64" height="64">
<path d="M32 64C49.6731 64 64 49.6731 64 32C64 14.3269 49.6731 0 32 0C14.3269 0 0 14.3269 0 32C0 49.6731 14.3269 64 32 64Z" fill="white"/>
</mask>
<g mask="url(#mask0_1897_5993)">
<path d="M51.1404 43.8732C50.3759 43.8732 49.7469 43.2539 49.7469 42.4798V41.7541C49.7469 40.9896 50.3662 40.3607 51.1404 40.3607C51.9048 40.3607 52.5338 39.7414 52.5338 38.9673V30.5197C52.5338 28.3425 50.763 26.5717 48.5858 26.5717C47.8213 26.5717 47.1924 25.9524 47.1924 25.1783V21.1336C47.1924 14.5633 41.8703 9.24121 35.3 9.24121H33.3937C32.8325 9.24121 32.3487 9.57021 32.1358 10.0444C31.9133 9.57021 31.4294 9.24121 30.8779 9.24121H28.9716C22.4013 9.24121 17.0793 14.5633 17.0793 21.1336V25.1783C17.0793 25.9428 16.46 26.5717 15.6859 26.5717C13.5087 26.5717 11.7379 28.3425 11.7379 30.5197V38.9673C11.7379 39.7317 12.3572 40.3607 13.1313 40.3607C13.9054 40.3607 14.5247 40.9799 14.5247 41.7541V42.4798C14.5247 43.2442 13.9054 43.8732 13.1313 43.8732C11.6314 43.8732 10.4219 45.0828 10.4219 46.5826V51.1112C10.4219 55.2043 13.7409 58.5233 17.834 58.5233H32.01H32.2713H46.4473C50.5404 58.5233 53.8594 55.2043 53.8594 51.1112V46.5826C53.8498 45.0924 52.6402 43.8732 51.1404 43.8732Z" fill="#E54545"/>
<path d="M37.8348 47.4149C36.1995 48.6147 34.1965 49.3211 32.0193 49.3211C29.8324 49.3211 27.8004 48.6051 26.165 47.3955V51.2854H37.8348V47.4149Z" fill="#FFB699"/>
<path d="M39.9155 51.2852H37.8351H26.1653H24.0752V54.3236H39.9155V51.2852Z" fill="#4F2228"/>
<path d="M21.6364 54.3232H8.77637V65.935H55.2233V54.3232H42.3633H21.6364Z" fill="#351326"/>
<path d="M32 46.8247C34.1869 46.8247 36.1996 46.1086 37.8349 44.9087C40.2734 43.1186 41.8507 40.2253 41.8507 36.974V34.7775V33.0164V31.5456V29.7845V22.7303C41.8507 19.6822 39.3735 17.2051 36.3254 17.2051H27.6747C24.6266 17.2051 22.1494 19.6822 22.1494 22.7303V29.7845V31.5456V32.997V34.7581V36.9644C22.1494 40.2253 23.7267 43.1089 26.1651 44.8991C27.8005 46.1086 29.8132 46.8247 32 46.8247ZM37.3705 29.1361C37.3705 29.4845 37.0898 29.7651 36.7415 29.7651C36.3931 29.7651 36.1125 29.4845 36.1125 29.1361V27.8201C36.1125 27.4718 36.3931 27.1912 36.7415 27.1912C37.0898 27.1912 37.3705 27.4718 37.3705 27.8201V29.1361ZM35.1062 20.7757H39.5573V21.9465C39.5573 22.5949 39.0348 23.1174 38.3865 23.1174H35.1062C34.4578 23.1174 33.9353 22.5949 33.9353 21.9465C33.9353 21.3079 34.4578 20.7757 35.1062 20.7757ZM33.6741 33.9066C34.0031 33.9066 34.274 34.1776 34.274 34.5066C34.274 34.8356 34.0031 35.1065 33.6741 35.1065C33.3451 35.1065 33.0741 34.8356 33.0741 34.5066C33.0741 34.1776 33.3451 33.9066 33.6741 33.9066ZM30.9163 34.5066C30.9163 34.8356 30.6453 35.1065 30.3163 35.1065C29.9873 35.1065 29.7164 34.8356 29.7164 34.5066C29.7164 34.1776 29.9873 33.9066 30.3163 33.9066C30.6453 33.9066 30.9163 34.1776 30.9163 34.5066ZM25.6329 23.1174C24.9846 23.1174 24.4621 22.5949 24.4621 21.9465V20.7757H28.9132C29.5616 20.7757 30.0841 21.2982 30.0841 21.9465C30.0841 22.5949 29.5616 23.1174 28.9132 23.1174H25.6329ZM27.9069 29.1361C27.9069 29.4845 27.6263 29.7651 27.2779 29.7651C26.9296 29.7651 26.649 29.4845 26.649 29.1361V27.8201C26.649 27.4718 26.9296 27.1912 27.2779 27.1912C27.6263 27.1912 27.9069 27.4718 27.9069 27.8201V29.1361ZM28.2649 39.4512C28.2649 39.4222 28.2649 39.3835 28.2649 39.3448C28.2649 39.2383 28.2746 39.1416 28.294 39.0351C28.4391 38.0965 29.2519 37.3805 30.2292 37.3805C31.313 37.3805 32.1936 38.261 32.1936 39.3448C32.1936 38.261 33.0741 37.3805 34.1579 37.3805C35.1352 37.3805 35.948 38.0965 36.0932 39.0351C36.1125 39.1319 36.1222 39.2383 36.1222 39.3448C36.1222 39.3835 36.1222 39.4125 36.1222 39.4512C36.0738 40.3898 35.3094 41.1349 34.3708 41.2123C33.645 41.2801 32.9193 41.3091 32.1936 41.3091C31.4678 41.3091 30.7421 41.2801 30.0164 41.2123C29.0777 41.1349 28.3133 40.3898 28.2649 39.4512Z" fill="#FFB699"/>
<path d="M32.0095 49.3207C34.1867 49.3207 36.1994 48.6143 37.8251 47.4144V44.9082C36.1897 46.1081 34.177 46.8241 31.9902 46.8241C29.8033 46.8241 27.7906 46.1081 26.1553 44.9082V47.3951C27.8003 48.6046 29.8226 49.3207 32.0095 49.3207Z" fill="#E5A189"/>
<path d="M34.3705 41.2221C35.3091 41.1447 36.0735 40.3996 36.1219 39.461C36.1219 39.432 36.1219 39.3933 36.1219 39.3546C36.1219 39.2481 36.1122 39.1514 36.0929 39.0449C34.7963 39.2481 33.4996 39.3546 32.1933 39.3546C30.887 39.3546 29.5806 39.2481 28.2937 39.0449C28.2743 39.1417 28.2646 39.2481 28.2646 39.3546C28.2646 39.3933 28.2646 39.4223 28.2646 39.461C28.313 40.3996 29.0775 41.1447 30.0161 41.2221C30.7418 41.2899 31.4676 41.3189 32.1933 41.3189C32.919 41.3189 33.6448 41.2802 34.3705 41.2221Z" fill="#840F36"/>
<path d="M21.6172 33.1704C21.1237 33.1704 20.7173 32.764 20.7173 32.2705C20.7173 31.777 21.1237 31.3706 21.6172 31.3706C21.8107 31.3706 21.9946 31.4383 22.1397 31.5448V29.7836C21.9655 29.7449 21.7914 29.7256 21.6172 29.7256C20.2141 29.7256 19.0723 30.8674 19.0723 32.2705C19.0723 33.5768 20.0593 34.6606 21.3366 34.8057V34.3606H21.9075V34.8057C21.9849 34.796 22.072 34.7864 22.1494 34.767V33.0059C21.9946 33.1123 21.8204 33.1704 21.6172 33.1704Z" fill="#FFB699"/>
<path d="M20.7266 32.271C20.7266 32.7645 21.133 33.1709 21.6265 33.1709C21.82 33.1709 22.0039 33.1032 22.149 32.9967V31.5453C22.0039 31.4388 21.82 31.3711 21.6265 31.3711C21.1233 31.3711 20.7266 31.7775 20.7266 32.271Z" fill="#333333"/>
<path d="M42.3634 31.3706C42.8569 31.3706 43.2633 31.777 43.2633 32.2705C43.2633 32.764 42.8569 33.1704 42.3634 33.1704C42.1699 33.1704 41.9957 33.1123 41.8506 33.0059V34.767C41.928 34.7864 42.0054 34.796 42.0731 34.8057V34.3606H42.6441V34.8057C43.9117 34.6606 44.9083 33.5865 44.9083 32.2705C44.9083 30.8674 43.7665 29.7256 42.3634 29.7256C42.1893 29.7256 42.0151 29.7449 41.8506 29.774V31.5351C41.9957 31.4383 42.1699 31.3706 42.3634 31.3706Z" fill="#FFB699"/>
<path d="M43.2633 32.271C43.2633 31.7775 42.8569 31.3711 42.3634 31.3711C42.1699 31.3711 41.9957 31.4291 41.8506 31.5356V33.0064C41.9957 33.1128 42.1699 33.1709 42.3634 33.1709C42.8569 33.1709 43.2633 32.7742 43.2633 32.271Z" fill="#333333"/>
<path d="M34.1577 37.3896C33.0739 37.3896 32.1934 38.2702 32.1934 39.354C33.4997 39.354 34.806 39.2475 36.093 39.0443C35.9478 38.1057 35.135 37.3896 34.1577 37.3896Z" fill="#991037"/>
<path d="M30.2292 37.3896C29.2519 37.3896 28.4391 38.1057 28.2939 39.0443C29.5906 39.2475 30.8872 39.354 32.1936 39.354C32.1936 38.2702 31.313 37.3896 30.2292 37.3896Z" fill="#991037"/>
<path d="M42.0732 34.3613V34.8065C42.17 34.8161 42.2668 34.8258 42.3635 34.8258C42.4603 34.8258 42.5571 34.8161 42.6538 34.8065V34.3613H42.0732Z" fill="#FFCB27"/>
<path d="M21.3359 34.3613V34.8065C21.4327 34.8161 21.5295 34.8258 21.6262 34.8258C21.723 34.8258 21.8198 34.8161 21.9165 34.8065V34.3613H21.3359Z" fill="#FFCB27"/>
<path d="M29.7158 34.5062C29.7158 34.8352 29.9868 35.1061 30.3158 35.1061C30.6448 35.1061 30.9157 34.8352 30.9157 34.5062C30.9157 34.1772 30.6448 33.9062 30.3158 33.9062C29.9868 33.9062 29.7158 34.1772 29.7158 34.5062Z" fill="#4C1818"/>
<path d="M33.6742 35.1061C34.0032 35.1061 34.2741 34.8352 34.2741 34.5062C34.2741 34.1772 34.0032 33.9062 33.6742 33.9062C33.3452 33.9062 33.0742 34.1772 33.0742 34.5062C33.0742 34.8352 33.3452 35.1061 33.6742 35.1061Z" fill="#4C1818"/>
<path d="M30.0839 21.9462C30.0839 21.2979 29.5614 20.7754 28.9131 20.7754H24.4619V21.9462C24.4619 22.5946 24.9844 23.1171 25.6328 23.1171H28.9131C29.5614 23.1171 30.0839 22.5946 30.0839 21.9462Z" fill="#4C1818"/>
<path d="M35.1064 23.1171H38.3867C39.035 23.1171 39.5576 22.5946 39.5576 21.9462V20.7754H35.1064C34.4581 20.7754 33.9355 21.2979 33.9355 21.9462C33.9355 22.5946 34.4581 23.1171 35.1064 23.1171Z" fill="#4C1818"/>
<path d="M36.7413 27.1904C36.3929 27.1904 36.1123 27.471 36.1123 27.8194V29.1354C36.1123 29.4837 36.3929 29.7644 36.7413 29.7644C37.0896 29.7644 37.3702 29.4837 37.3702 29.1354V27.8194C37.3702 27.471 37.0896 27.1904 36.7413 27.1904Z" fill="#4C1818"/>
<path d="M27.2774 27.1904C26.9291 27.1904 26.6484 27.471 26.6484 27.8194V29.1354C26.6484 29.4837 26.9291 29.7644 27.2774 29.7644C27.6258 29.7644 27.9064 29.4837 27.9064 29.1354V27.8194C27.9064 27.471 27.6258 27.1904 27.2774 27.1904Z" fill="#4C1818"/>
<path d="M42.0732 34.8066V36.7516H42.6442V34.8066C42.5474 34.8163 42.4506 34.826 42.3539 34.826C42.2668 34.826 42.17 34.8163 42.0732 34.8066Z" fill="#FFCB27"/>
<path d="M21.3359 34.8066V36.7516H21.9069V34.8066C21.8101 34.8163 21.7133 34.826 21.6166 34.826C21.5198 34.826 21.423 34.8163 21.3359 34.8066Z" fill="#FFCB27"/>
<path d="M37.8348 49.5146H26.165V51.0435H37.8348V49.5146Z" fill="#FFCB27"/>
</g>
</svg>

